HIERARCHY
ROOT Hips
{
 OFFSET 0.000000 0.000000 0.000000
 CHANNELS 6 Xposition Yposition Zposition Yrotation Xrotation Zrotation
 JOINT Chest
 {
  OFFSET 0.000000 9.585900 0.002600
  CHANNELS 3 Yrotation Xrotation Zrotation
  JOINT Chest2
  {
   OFFSET 0.000000 9.601200 -0.005300
   CHANNELS 3 Yrotation Xrotation Zrotation
   JOINT Chest3
   {
    OFFSET 0.000000 9.561800 0.000000
    CHANNELS 3 Yrotation Xrotation Zrotation
    JOINT Chest4
    {
     OFFSET 0.000000 9.552100 0.000000
     CHANNELS 3 Yrotation Xrotation Zrotation
     JOINT Neck
     {
      OFFSET 0.000000 14.453000 0.000000
      CHANNELS 3 Yrotation Xrotation Zrotation
      JOINT Head
      {
       OFFSET 0.000000 8.936500 -0.011300
       CHANNELS 3 Yrotation Xrotation Zrotation
       End Site
       {
        OFFSET 0.000000 17.073600 -0.006000
       }
      }
     }
     JOINT RightCollar
     {
      OFFSET -2.921100 9.558500 0.000000
      CHANNELS 3 Yrotation Xrotation Zrotation
      JOINT RightShoulder
      {
       OFFSET -13.519700 0.000000 0.000000
       CHANNELS 3 Yrotation Xrotation Zrotation
       JOINT RightElbow
       {
        OFFSET 0.000000 -29.696600 0.000000
        CHANNELS 3 Yrotation Xrotation Zrotation
        JOINT RightWrist
        {
         OFFSET 0.000000 -24.004700 0.000000
         CHANNELS 3 Yrotation Xrotation Zrotation
         End Site
         {
          OFFSET 0.000000 -17.728500 0.000000
         }
        }
       }
      }
     }
     JOINT LeftCollar
     {
      OFFSET 2.921100 9.558500 0.000000
      CHANNELS 3 Yrotation Xrotation Zrotation
      JOINT LeftShoulder
      {
       OFFSET 13.519700 0.000000 0.000000
       CHANNELS 3 Yrotation Xrotation Zrotation
       JOINT LeftElbow
       {
        OFFSET 0.000000 -29.696600 0.000000
        CHANNELS 3 Yrotation Xrotation Zrotation
        JOINT LeftWrist
        {
         OFFSET 0.000000 -24.004700 0.000000
         CHANNELS 3 Yrotation Xrotation Zrotation
         End Site
         {
          OFFSET 0.000000 -17.728500 0.000000
         }
        }
       }
      }
     }
    }
   }
  }
 }
 JOINT RightHip
 {
  OFFSET -7.771700 -0.012900 -0.001300
  CHANNELS 3 Yrotation Xrotation Zrotation
  JOINT RightKnee
  {
   OFFSET 0.000000 -40.869800 0.001200
   CHANNELS 3 Yrotation Xrotation Zrotation
   JOINT RightAnkle
   {
    OFFSET 0.000000 -39.717900 0.002100
    CHANNELS 3 Yrotation Xrotation Zrotation
    JOINT RightToe
    {
     OFFSET 0.000000 -4.965400 11.033500
     CHANNELS 3 Yrotation Xrotation Zrotation
     End Site
     {
      OFFSET 0.000000 -1.423100 5.872300
     }
    }
   }
  }
 }
 JOINT LeftHip
 {
  OFFSET 7.771700 -0.012900 -0.001300
  CHANNELS 3 Yrotation Xrotation Zrotation
  JOINT LeftKnee
  {
   OFFSET 0.000000 -40.869800 0.001200
   CHANNELS 3 Yrotation Xrotation Zrotation
   JOINT LeftAnkle
   {
    OFFSET 0.000000 -39.717900 0.002100
    CHANNELS 3 Yrotation Xrotation Zrotation
    JOINT LeftToe
    {
     OFFSET 0.000000 -4.965400 11.033500
     CHANNELS 3 Yrotation Xrotation Zrotation
     End Site
     {
      OFFSET 0.000000 -1.423100 5.872300
     }
    }
   }
  }
 }
}
MOTION
Frames: 9
Frame Time: 0.008333
0.000000 85.388000 0.000000 0.000000 -5.767877 0.000000 0.000000 11.653817 0.000000 0.000000 -5.885947 0.000000 0.000000 -0.000000 0.000000 0.000000 -0.000000 0.000000 0.000000 12.528835 0.000000 0.000000 0.711642 0.000000 0.000000 -0.000000 0.000000 0.000000 0.000000 -90.000000 0.000000 -2.309062 0.000000 0.000000 2.309062 0.000000 0.000000 -0.000000 0.000000 0.000000 -0.000000 90.000000 0.000000 -2.309062 0.000000 0.000000 2.309062 0.000000 0.000000 8.520406 0.000000 0.000000 1.905762 0.000000 -0.000000 -4.658285 0.000000 0.000000 -0.000000 0.000000 0.000000 8.520406 0.000000 0.000000 1.905762 0.000000 -0.000000 -4.658285 0.000000 0.000000 -0.000000 0.000000
-12.302795 59.428244 32.720079 162.498776 -32.219531 -4.612634 6.219085 21.587808 3.196716 0.682197 2.913739 0.098116 1.113101 4.737403 0.177516 4.451794 18.072533 1.214740 -0.069798 14.548585 -0.060193 -0.108212 -8.777864 -0.086301 6.717654 -2.258277 -0.395445 31.957463 -41.103043 -16.800798 25.027077 -7.888812 -3.948659 10.142176 -0.857912 -49.454274 -8.012735 -6.279594 0.025999 -93.789730 -26.072820 11.827859 7.802171 1.008889 40.447274 -21.063144 -5.022694 36.728050 13.133640 -39.290471 10.266661 -0.489572 66.877984 3.191746 3.265365 2.907750 3.766163 -0.046453 0.149428 -0.021341 -5.165910 -40.831122 6.881489 29.832841 71.329469 31.075268 -17.585866 1.439994 -2.113131 -1.027454 -1.473087 -0.483283
-12.322494 59.398971 32.762630 162.623026 -32.268920 -4.566862 6.087434 21.469560 3.119902 0.680980 2.911818 0.100948 1.111185 4.734421 0.182073 4.447952 18.067589 1.232042 -0.094102 14.662844 -0.081208 -0.145891 -8.565609 -0.116706 6.747281 -2.192966 -0.370055 31.935578 -41.116699 -16.842315 24.981838 -7.784424 -3.898176 10.037624 -1.037418 -49.509466 -8.015457 -6.237671 0.014555 -93.823052 -26.180424 11.829155 7.401904 1.249426 40.396570 -21.057795 -5.210878 36.715901 13.197752 -39.270909 10.101501 -0.562462 66.904958 3.153844 3.250883 2.932567 3.800294 -0.045537 0.147609 -0.018883 -5.149405 -40.816448 6.743952 29.964069 71.232551 31.173950 -17.726817 1.531276 -2.133666 -0.984314 -1.472085 -0.452880
-12.341328 59.367524 32.808594 162.720149 -32.358708 -4.501223 5.984057 21.387418 3.043536 0.680096 2.910316 0.103497 1.109766 4.732087 0.186191 4.445570 18.063601 1.247930 -0.120987 14.780623 -0.100638 -0.188953 -8.346846 -0.143129 6.773838 -2.135587 -0.345443 31.936015 -41.121241 -16.885559 24.916004 -7.690044 -3.945925 9.939499 -1.227501 -49.482192 -8.016056 -6.197236 0.004196 -93.835050 -26.289768 11.825932 6.943041 1.496187 40.336021 -21.051931 -5.379865 36.707694 13.270154 -39.217837 9.953370 -0.626341 66.933325 3.110420 3.232268 2.962729 3.833695 -0.043015 0.145958 -0.012780 -5.104687 -40.763931 6.602437 30.024193 71.175788 31.205757 -17.855689 1.546530 -2.158506 -0.937177 -1.418124 -0.418529
-12.346541 59.339163 32.854467 162.762954 -32.526249 -4.470162 5.963891 21.369957 3.045778 0.679643 2.909246 0.105970 1.109068 4.730475 0.190163 4.445669 18.060407 1.263531 -0.151324 14.902736 -0.118768 -0.238915 -8.120111 -0.165729 6.798462 -2.083649 -0.324273 31.948036 -41.117951 -16.931718 24.845999 -7.592376 -3.960921 9.837939 -1.419168 -49.494006 -8.019906 -6.156981 -0.004504 -93.841644 -26.398611 11.820802 6.456834 1.742588 40.274053 -21.056825 -5.549146 36.704220 13.287741 -39.089632 9.935717 -0.660180 66.931188 3.073556 3.218065 3.006227 3.856008 -0.044676 0.152775 -0.008370 -5.067135 -40.634083 6.545156 30.055047 71.141270 31.210595 -17.934275 1.593162 -2.155741 -0.925418 -1.404526 -0.415401
-12.349103 59.308396 32.904000 162.806293 -32.698914 -4.449854 5.951213 21.352707 3.060624 0.679762 2.908351 0.108481 1.109307 4.729068 0.194175 4.449220 18.057152 1.279691 -0.185155 15.031432 -0.134937 -0.296173 -7.881088 -0.183470 6.821737 -2.030079 -0.305914 31.962070 -41.111892 -16.979551 24.784243 -7.502014 -3.976739 9.726105 -1.613005 -49.502464 -8.027800 -6.113042 -0.010427 -93.856462 -26.503178 11.817258 5.958046 1.976403 40.214310 -21.083219 -5.729021 36.705334 13.293313 -38.960425 9.938715 -0.709544 66.925636 3.018519 3.203689 3.054451 3.878678 -0.046996 0.160038 -0.004883 -5.051048 -40.499157 6.507147 30.099918 71.110366 31.217879 -17.966522 1.629203 -2.155058 -0.925218 -1.383776 -0.406293
-12.343417 59.280644 32.950210 162.801185 -32.926638 -4.436590 6.000221 21.378439 3.115726 0.680531 2.907416 0.110719 1.110614 4.727547 0.197775 4.456480 18.053233 1.294634 -0.220635 15.167246 -0.147836 -0.357781 -7.628851 -0.194603 6.845198 -1.972005 -0.285075 31.967286 -41.104939 -17.027670 24.738659 -7.429684 -4.018998 9.603258 -1.812494 -49.475137 -8.035997 -6.061794 -0.011490 -93.870457 -26.602078 11.818061 5.427060 2.189823 40.147933 -21.129696 -5.913263 36.707216 13.343838 -38.792018 9.992074 -0.836349 66.911456 2.905216 3.191768 3.117455 3.904995 -0.047168 0.158742 0.000596 -5.028656 -40.310943 6.516839 30.112271 71.116921 31.196594 -17.977174 1.649009 -2.145217 -0.914044 -1.380757 -0.409995
-12.328862 59.254985 32.994808 162.769923 -33.189491 -4.451607 6.093577 21.428107 3.219056 0.681892 2.906651 0.112481 1.113006 4.726316 0.200719 4.467232 18.049323 1.307218 -0.256801 15.306758 -0.156880 -0.421987 -7.369770 -0.198415 6.867452 -1.910855 -0.257087 31.963903 -41.095242 -17.080174 24.700986 -7.366237 -4.025693 9.483711 -2.020425 -49.470637 -8.045142 -6.008726 -0.007671 -93.871565 -26.695915 11.817857 4.858161 2.386867 40.070533 -21.189800 -6.102641 36.710397 13.377265 -38.595411 10.113098 -0.980485 66.883086 2.779340 3.192241 3.196853 3.910189 -0.054897 0.150078 0.019536 -5.031187 -40.085258 6.590714 30.134128 71.125804 31.171769 -17.948736 1.710860 -2.113302 -0.969173 -1.410749 -0.433661
-12.330297 59.220814 33.043639 162.813414 -33.376849 -4.420663 6.085630 21.412833 3.223195 0.683812 2.906727 0.114027 1.116250 4.726379 0.203351 4.480572 18.047263 1.318696 -0.294307 15.444506 -0.162584 -0.489725 -7.113898 -0.195691 6.883838 -1.849117 -0.225472 31.958470 -41.083841 -17.139889 24.679152 -7.322046 -4.027403 9.361477 -2.229577 -49.455949 -8.060458 -5.961777 -0.002018 -93.850914 -26.787195 11.812616 4.258818 2.576830 39.980428 -21.262473 -6.307195 36.723309 13.418478 -38.462967 10.091751 -1.095422 66.891949 2.684464 3.192752 3.246076 3.928104 -0.049369 0.150691 0.024308 -5.052951 -39.934837 6.573176 30.200770 71.101947 31.161974 -17.985876 1.747009 -2.111852 -0.986828 -1.386978 -0.423694
